<svg class="svg-icon" style="width: 1em; height: 1em;vertical-align: middle;fill: currentColor;overflow: hidden;" viewBox="0 0 1024 1024" version="1.1" xmlns="http://www.w3.org/2000/svg"><path d="M924.72 578.4L816 685.68V347.728C816 254.944 743.648 176 650.864 176H341.984l78.56 80h230.32C699.456 256 736 299.12 736 347.728V685.28l-105.472-106.88-55.84 56.56 204 203.632 202.88-203.632-56.848-56.56zM362.848 752C314.272 752 272 716.32 272 667.712V330.048l108.464 107.04 57.28-56.576-203.296-203.632L30.976 380.512l55.216 56.576L192 329.968v337.76C192 760.48 270.08 832 362.848 832h308.96l-78.56-80h-230.4z" fill="#565D64" /></svg>